<svg xmlns="http://www.w3.org/2000/svg" width="505" height="422.718" viewBox="0 0 505 422.718">
  <g id="Group_105" data-name="Group 105" transform="translate(-726 -196.282)">
    <ellipse id="Ellipse_7" data-name="Ellipse 7" cx="252.5" cy="14.5" rx="252.5" ry="14.5" transform="translate(726 590)" fill="#3b8bf6"/>
    <g id="Group_97" data-name="Group 97" transform="translate(679 70.8)">
      <g id="Group_89" data-name="Group 89" transform="translate(297 125.481)">
        <g id="Group_87" data-name="Group 87" transform="translate(0 0)">
          <g id="Group_56" data-name="Group 56" transform="translate(141.37 20.947) rotate(-9)">
            <path id="Path_146" data-name="Path 146" d="M10.708,5.315c-.3.368-.638.82-1.022,1.375C7.994,9.138,5.1,12.48,5.1,12.48L0,16.417A69.7,69.7,0,0,0,2.028,9.151C2.749,5.4,7.148,0,7.148,0S8.814,2.448,10.708,5.315Z" transform="translate(40.3 57.707)" fill="#225e60"/>
            <path id="Path_147" data-name="Path 147" d="M1.743,0S3.707,4.034,5.424,7.244a20.762,20.762,0,0,1,1.987,7.311S4.607,5.405,0,.151Z" transform="translate(47.137 62.718)" fill="#225e60"/>
            <path id="Path_148" data-name="Path 148" d="M1.74,0S3.7,4.034,5.421,7.244a20.8,20.8,0,0,1,1.99,7.312S4.607,5.405,0,.151Z" transform="translate(44.17 64.31)" fill="#225e60"/>
            <path id="Path_149" data-name="Path 149" d="M1.743,0S3.707,4.034,5.424,7.244a20.765,20.765,0,0,1,1.987,7.311S4.607,5.405,0,.151Z" transform="translate(40.457 65.063)" fill="#225e60"/>
            <path id="Path_150" data-name="Path 150" d="M36.968,75.05A180.756,180.756,0,0,0,49.9,61.5c3.505-4.287,11.031-19.679,11.031-19.679S69.4,27.253,71.564,24.113s4.982-13.9,5.226-15.5c0,0-3.239,1.624-4.3,1.608s.247-4.373.247-4.373L74.182,2.4S72.65.692,68.463,0c0,0-17.776,1.708-26.632,5.027s-25.927,13-25.927,13L0,62.529C.006,62.523,27.247,79.923,36.968,75.05Z" transform="translate(0 0.006)" fill="#90b8bf"/>
            <path id="Path_151" data-name="Path 151" d="M29.573,10.849,27.09,0S24.341,5.03,23,6.174s-5.745,5.053-5.745,5.053S3.412,26.949,0,30c0,0,12.928-4.383,15.911-5.9s10.314-5.267,10.314-5.267Z" transform="translate(20.547 31.348)" fill="#32848b"/>
            <path id="Path_152" data-name="Path 152" d="M22.117,0c4.188.692,5.719,2.4,5.719,2.4L26.391,5.844s-1.307,4.357-.247,4.373,4.3-1.608,4.3-1.608c-.247,1.6-3.057,12.364-5.226,15.5-.58.836-1.605,2.486-2.8,4.457-4.216-.714-9.775-1.807-11.723-2.877C7.4,23.886,1.557,15.459.494,11.39A36.094,36.094,0,0,1,.007,3.637,174.148,174.148,0,0,1,22.117,0Z" transform="translate(46.349 0)" fill="#32848b"/>
            <path id="Path_153" data-name="Path 153" d="M7.015,1.772S7.4,4.919,5.265,5.941a5.821,5.821,0,0,1-4.6-.224s-1.6-2.8.147-4.415S4.647-.714,7.015,1.772Z" transform="translate(58.549 3.62)" fill="#95d0dd"/>
            <path id="Path_154" data-name="Path 154" d="M2.284.576s.125,1.022-.57,1.355a1.889,1.889,0,0,1-1.5-.074S-.3.947.265.422A1.28,1.28,0,0,1,2.284.576Z" transform="translate(61.293 4.82)" fill="#225e60"/>
          </g>
          <g id="Group_86" data-name="Group 86" transform="translate(0)">
            <g id="Group_57" data-name="Group 57" transform="translate(70.738)">
              <path id="XMLID_9_" d="M0,0H17.825V11.256H0Z" transform="translate(11.471)" fill="#d0d0d0"/>
              <path id="XMLID_8_" d="M233.354,78.706a2.263,2.263,0,0,0,.595-1.5V69.3c0-4.836-6.115-13.991-10-19.319a16.3,16.3,0,0,1-3.135-9.6v-1.2H206.325v1.2a16.3,16.3,0,0,1-3.135,9.6c-3.885,5.328-10,14.483-10,19.319v7.908a2.263,2.263,0,0,0,.595,1.5,2.187,2.187,0,0,1,.552,1.448v1.535a2.184,2.184,0,0,1-.572,1.474h0a2.187,2.187,0,0,0-.575,1.474V91.7a2.263,2.263,0,0,0,.595,1.5,2.187,2.187,0,0,1,.552,1.448V96.18a2.263,2.263,0,0,1-.595,1.5,2.187,2.187,0,0,0-.552,1.448v7.058a2.263,2.263,0,0,0,.595,1.5,2.187,2.187,0,0,1,.552,1.448v1.534a2.264,2.264,0,0,1-.595,1.5,2.187,2.187,0,0,0-.552,1.448v7.058a2.263,2.263,0,0,0,.595,1.5,2.187,2.187,0,0,1,.552,1.448v1.535a2.264,2.264,0,0,1-.595,1.5,2.187,2.187,0,0,0-.552,1.448v7.058a2.263,2.263,0,0,0,.595,1.5,2.187,2.187,0,0,1,.552,1.448v1.534a2.263,2.263,0,0,1-.595,1.5,2.187,2.187,0,0,0-.552,1.448v7.058a2.263,2.263,0,0,0,.595,1.5,2.187,2.187,0,0,1,.552,1.448v1.534a2.264,2.264,0,0,1-.595,1.5,2.187,2.187,0,0,0-.552,1.448V180.73a3.857,3.857,0,0,0,3.856,3.856h33.04a3.857,3.857,0,0,0,3.856-3.856V157.083a2.263,2.263,0,0,0-.595-1.5,2.187,2.187,0,0,1-.552-1.448V152.6a2.263,2.263,0,0,1,.595-1.5,2.187,2.187,0,0,0,.552-1.448v-7.057a2.263,2.263,0,0,0-.595-1.5,2.187,2.187,0,0,1-.552-1.448v-1.534a2.263,2.263,0,0,1,.595-1.5,2.187,2.187,0,0,0,.552-1.448v-7.058a2.263,2.263,0,0,0-.595-1.5,2.187,2.187,0,0,1-.552-1.448v-1.535a2.263,2.263,0,0,1,.595-1.5,2.187,2.187,0,0,0,.552-1.448v-7.058a2.263,2.263,0,0,0-.595-1.5,2.187,2.187,0,0,1-.552-1.448v-1.534a2.263,2.263,0,0,1,.595-1.5,2.187,2.187,0,0,0,.552-1.448V99.129a2.263,2.263,0,0,0-.595-1.5,2.187,2.187,0,0,1-.552-1.448V94.646a2.264,2.264,0,0,1,.595-1.5,2.187,2.187,0,0,0,.552-1.448V84.64a2.184,2.184,0,0,0-.572-1.474h0a2.184,2.184,0,0,1-.572-1.474V80.157A2.212,2.212,0,0,1,233.354,78.706Z" transform="translate(-193.19 -27.921)" fill="#e6e7e8"/>
              <path id="Path_155" data-name="Path 155" d="M199.219,266.182a2.992,2.992,0,0,1-2.989-2.989V239.547a1.318,1.318,0,0,1,.345-.888,3.04,3.04,0,0,0,.8-2.06v-1.534a3.04,3.04,0,0,0-.8-2.06,1.3,1.3,0,0,1-.345-.888v-7.058a1.318,1.318,0,0,1,.345-.888,3.04,3.04,0,0,0,.8-2.06v-1.535a3.04,3.04,0,0,0-.8-2.06,1.3,1.3,0,0,1-.345-.888V210.57a1.318,1.318,0,0,1,.345-.888,3.04,3.04,0,0,0,.8-2.06v-1.535a3.04,3.04,0,0,0-.8-2.06,1.3,1.3,0,0,1-.345-.888v-7.058a1.318,1.318,0,0,1,.345-.888,3.04,3.04,0,0,0,.8-2.06V191.6a3.04,3.04,0,0,0-.8-2.06,1.3,1.3,0,0,1-.345-.888v-7.058a1.318,1.318,0,0,1,.345-.888,3.04,3.04,0,0,0,.8-2.06V177.11a3.04,3.04,0,0,0-.8-2.06,1.3,1.3,0,0,1-.345-.888V167.1a1.318,1.318,0,0,1,.345-.888,3.04,3.04,0,0,0,.8-2.06v-1.535a3.04,3.04,0,0,0-.8-2.06,1.3,1.3,0,0,1-.345-.888V154.9h39.02v4.776a1.318,1.318,0,0,1-.345.888,3.04,3.04,0,0,0-.8,2.06v1.534a3.04,3.04,0,0,0,.8,2.06,1.3,1.3,0,0,1,.345.888v7.058a1.318,1.318,0,0,1-.345.888,3.04,3.04,0,0,0-.8,2.06v1.535a3.04,3.04,0,0,0,.8,2.06,1.3,1.3,0,0,1,.345.888v7.058a1.318,1.318,0,0,1-.345.888,3.04,3.04,0,0,0-.8,2.06v1.534a3.04,3.04,0,0,0,.8,2.06,1.3,1.3,0,0,1,.345.888v7.058a1.318,1.318,0,0,1-.345.888,3.04,3.04,0,0,0-.8,2.06v1.534a3.04,3.04,0,0,0,.8,2.06,1.3,1.3,0,0,1,.345.888v7.057a1.318,1.318,0,0,1-.345.888,3.04,3.04,0,0,0-.8,2.06v1.535a3.04,3.04,0,0,0,.8,2.06,1.3,1.3,0,0,1,.345.888v7.057a1.318,1.318,0,0,1-.345.888,3.04,3.04,0,0,0-.8,2.06V236.6a3.04,3.04,0,0,0,.8,2.06,1.3,1.3,0,0,1,.345.888V263.2a2.992,2.992,0,0,1-2.989,2.988H199.219Z" transform="translate(-195.356 -110.388)" fill="#309a51"/>
              <path id="XMLID_2_" d="M274.5,22.06a16.3,16.3,0,0,1-3.135-9.6v-1.2h1.667V0H264.12V156.662h16.52a3.85,3.85,0,0,0,3.856-3.856V129.159a2.184,2.184,0,0,0-.572-1.474c-.029-.032-.055-.063-.08-.095l-.06-.072c-.023-.029-.04-.06-.06-.089l-.052-.078c-.02-.032-.034-.063-.052-.095s-.029-.052-.043-.08-.029-.066-.046-.1-.026-.055-.034-.08-.026-.072-.037-.109a.656.656,0,0,1-.026-.08c-.012-.037-.02-.078-.029-.118a.743.743,0,0,1-.017-.078,1.047,1.047,0,0,1-.017-.132c0-.023-.006-.043-.009-.066-.006-.066-.009-.135-.009-.2v-1.535a2.263,2.263,0,0,1,.595-1.5c.02-.023.037-.046.057-.072l.06-.072c.023-.029.04-.06.06-.089l.052-.078c.02-.032.035-.063.052-.095s.029-.052.043-.08a1.054,1.054,0,0,0,.043-.1c.012-.029.026-.055.035-.08s.023-.072.037-.106.02-.055.026-.08.017-.078.029-.115a.745.745,0,0,0,.017-.078,1.048,1.048,0,0,0,.017-.132c0-.023.006-.043.009-.066.006-.066.009-.135.009-.2v-7.058a2.184,2.184,0,0,0-.572-1.474c-.029-.032-.055-.063-.08-.095s-.04-.049-.06-.072-.04-.06-.06-.089l-.052-.078c-.02-.032-.034-.063-.052-.095s-.029-.052-.043-.08-.029-.066-.046-.1-.026-.055-.034-.08-.026-.072-.037-.109a.655.655,0,0,1-.026-.08c-.012-.037-.02-.078-.029-.118a.767.767,0,0,1-.017-.078,1.036,1.036,0,0,1-.017-.132l-.009-.066c-.006-.066-.009-.135-.009-.2V110.19a2.263,2.263,0,0,1,.595-1.5c.02-.023.037-.046.057-.072l.06-.072c.023-.029.04-.06.06-.089l.052-.078c.02-.032.034-.063.052-.095s.029-.052.043-.08a1.059,1.059,0,0,0,.043-.1c.012-.029.026-.055.034-.08s.023-.072.037-.106.02-.055.026-.08.017-.078.029-.115a.769.769,0,0,0,.017-.078,1.048,1.048,0,0,0,.017-.132l.009-.066c.006-.066.009-.135.009-.2v-7.058a2.185,2.185,0,0,0-.572-1.474c-.029-.032-.055-.063-.08-.095s-.04-.049-.06-.072-.04-.06-.06-.089l-.052-.078c-.02-.032-.034-.063-.052-.095s-.029-.052-.043-.08-.029-.066-.046-.1-.026-.055-.035-.08-.026-.072-.037-.109a.664.664,0,0,1-.026-.08c-.012-.037-.02-.078-.029-.118a.751.751,0,0,1-.017-.078,1.059,1.059,0,0,1-.017-.132c0-.023-.006-.043-.009-.066-.006-.066-.009-.135-.009-.2V95.7a2.263,2.263,0,0,1,.595-1.5c.02-.023.037-.046.057-.072s.04-.049.058-.072.04-.06.06-.089l.052-.078c.02-.032.034-.063.052-.095a.7.7,0,0,0,.043-.08c.017-.032.029-.066.046-.1s.026-.055.035-.08.026-.072.037-.109a.656.656,0,0,0,.026-.08c.011-.037.02-.078.029-.115a.752.752,0,0,0,.017-.078,1.048,1.048,0,0,0,.017-.132c0-.023.006-.043.009-.066.006-.066.009-.135.009-.2V85.7a2.184,2.184,0,0,0-.572-1.474c-.029-.032-.055-.063-.08-.095l-.06-.072c-.023-.029-.04-.06-.06-.089l-.052-.078c-.02-.032-.035-.063-.052-.095s-.029-.052-.043-.08-.029-.066-.046-.1-.026-.055-.034-.08-.026-.072-.037-.109a.655.655,0,0,1-.026-.08c-.012-.037-.02-.078-.029-.118a.753.753,0,0,1-.017-.078,1.032,1.032,0,0,1-.017-.132c0-.023-.006-.043-.009-.066-.006-.066-.009-.135-.009-.2V81.216a2.263,2.263,0,0,1,.595-1.5c.02-.023.037-.046.057-.072s.04-.049.06-.072l.06-.089.052-.078c.02-.032.034-.063.052-.095a.714.714,0,0,0,.043-.08,1.059,1.059,0,0,0,.043-.1c.012-.029.026-.055.035-.08s.026-.072.037-.109.02-.055.026-.08.02-.078.029-.115a.776.776,0,0,0,.017-.078,1.042,1.042,0,0,0,.017-.132l.009-.066c.006-.066.009-.135.009-.2V71.21a2.184,2.184,0,0,0-.572-1.474c-.029-.032-.055-.063-.08-.095s-.04-.049-.06-.072-.04-.06-.06-.089l-.052-.078c-.02-.032-.035-.063-.052-.095s-.029-.052-.043-.08-.029-.066-.046-.1-.026-.055-.035-.08-.026-.072-.037-.109a.654.654,0,0,1-.026-.08c-.012-.037-.02-.078-.029-.118a.76.76,0,0,1-.017-.078,1.037,1.037,0,0,1-.017-.132l-.009-.066c-.006-.066-.009-.135-.009-.2V66.728a2.264,2.264,0,0,1,.595-1.5c.02-.023.037-.046.058-.072s.04-.049.06-.072l.06-.089.052-.078c.02-.032.035-.063.052-.095a.731.731,0,0,0,.043-.08,1.06,1.06,0,0,0,.043-.1c.012-.029.026-.055.035-.08s.026-.072.037-.109.02-.055.026-.08.02-.078.029-.115a.778.778,0,0,0,.017-.078,1.031,1.031,0,0,0,.017-.132c0-.023.006-.043.009-.066.006-.066.009-.135.009-.2V56.722a2.185,2.185,0,0,0-.572-1.474h0a2.184,2.184,0,0,1-.572-1.474V52.239c0-.069,0-.135.009-.2l.009-.066.017-.132.017-.078c.009-.04.017-.078.029-.118s.017-.052.026-.08.023-.075.037-.109.023-.055.034-.08a1.1,1.1,0,0,1,.046-.1l.043-.078c.017-.032.034-.063.055-.095s.034-.052.052-.075.04-.06.06-.089.04-.049.057-.072.052-.066.08-.095a2.185,2.185,0,0,0,.572-1.474V41.38C284.5,36.543,278.384,27.391,274.5,22.06Z" transform="translate(-243.738)" fill="#e6e7e8"/>
            </g>
            <g id="Group_70" data-name="Group 70" transform="translate(63.82 30.054)">
              <g id="Group_60" data-name="Group 60" transform="translate(0 1.721)">
                <path id="Path_156" data-name="Path 156" d="M242.821,196.213a90.886,90.886,0,0,1-35.241,29.076c.336,2.073.311,1.9.647,3.976A53.775,53.775,0,0,0,263.566,153.1l-3.979.615A90.945,90.945,0,0,1,242.821,196.213Z" transform="translate(-207.58 -153.097)" fill="#e19e07"/>
                <g id="Group_59" data-name="Group 59">
                  <g id="Group_58" data-name="Group 58">
                    <path id="Path_157" data-name="Path 157" d="M263.563,153.09l-3.979.615a91.392,91.392,0,0,1-52,71.577c.336,2.073.311,1.9.647,3.976a87.805,87.805,0,0,0,55.336-76.168Z" transform="translate(-207.58 -153.09)" fill="#ffb70c"/>
                  </g>
                </g>
              </g>
              <g id="Group_63" data-name="Group 63" transform="translate(16.539 1.192)">
                <path id="Path_158" data-name="Path 158" d="M287.626,197.923A90.887,90.887,0,0,1,259.2,233.693c.759,1.958.7,1.8,1.458,3.755a53.774,53.774,0,0,0,38.291-86.008c-1.964.743-1.8.682-3.765,1.429A90.855,90.855,0,0,1,287.626,197.923Z" transform="translate(-259.2 -151.44)" fill="#e19e07"/>
                <g id="Group_62" data-name="Group 62" transform="translate(0 0)">
                  <g id="Group_61" data-name="Group 61">
                    <path id="Path_159" data-name="Path 159" d="M298.952,151.44c-1.964.743-1.8.682-3.765,1.429A91.4,91.4,0,0,1,259.2,233.7c.759,1.958.7,1.8,1.458,3.755a87.808,87.808,0,0,0,38.294-86.011Z" transform="translate(-259.2 -151.44)" fill="#ffb70c"/>
                  </g>
                </g>
              </g>
              <g id="Group_66" data-name="Group 66" transform="translate(34.696 0.609)">
                <path id="Path_160" data-name="Path 160" d="M336.238,197.446a90.893,90.893,0,0,1-20.368,40.9c1.15,1.756,1.057,1.612,2.208,3.367a53.774,53.774,0,0,0,19.573-92.089c-1.765,1.137-1.621,1.044-3.387,2.179A90.838,90.838,0,0,1,336.238,197.446Z" transform="translate(-315.87 -149.62)" fill="#e19e07"/>
                <g id="Group_65" data-name="Group 65">
                  <g id="Group_64" data-name="Group 64">
                    <path id="Path_161" data-name="Path 161" d="M337.654,149.62c-1.765,1.137-1.621,1.044-3.387,2.179a91.4,91.4,0,0,1-18.4,86.54c1.15,1.756,1.057,1.612,2.208,3.367a87.8,87.8,0,0,0,19.576-92.086Z" transform="translate(-315.87 -149.62)" fill="#ffb70c"/>
                  </g>
                </g>
              </g>
              <g id="Group_69" data-name="Group 69" transform="translate(53.683)">
                <path id="Path_162" data-name="Path 162" d="M386.549,194.793A90.879,90.879,0,0,1,375.13,239.03c1.49,1.477,1.368,1.358,2.861,2.836a53.774,53.774,0,0,0,0-94.146c-1.49,1.477-1.368,1.358-2.861,2.836A90.853,90.853,0,0,1,386.549,194.793Z" transform="translate(-375.13 -147.72)" fill="#e19e07"/>
                <g id="Group_68" data-name="Group 68">
                  <g id="Group_67" data-name="Group 67">
                    <path id="Path_163" data-name="Path 163" d="M377.991,147.72c-1.49,1.477-1.368,1.358-2.861,2.836a91.4,91.4,0,0,1,0,88.475c1.49,1.477,1.368,1.358,2.861,2.836a87.806,87.806,0,0,0,0-94.146Z" transform="translate(-375.13 -147.72)" fill="#ffb70c"/>
                  </g>
                </g>
              </g>
            </g>
            <g id="Group_81" data-name="Group 81" transform="translate(0 0.738)">
              <path id="Path_220" data-name="Path 220" d="M17.681,56.516h0A21.174,21.174,0,0,1,42.063,73.9l30.169,180.07a21.174,21.174,0,0,1-17.385,24.382h0a21.174,21.174,0,0,1-24.382-17.385L.3,80.9A21.176,21.176,0,0,1,17.681,56.516Z" transform="translate(-0.001 -56.221)" fill="#ffb70c"/>
              <g id="Group_80" data-name="Group 80" transform="translate(7.124 20.548)">
                <g id="Group_79" data-name="Group 79">
                  <g id="Group_78" data-name="Group 78">
                    <path id="Path_221" data-name="Path 221" d="M49.349,126.092,25.6,130.071a2.888,2.888,0,1,1-.955-5.7L48.394,120.4a2.888,2.888,0,0,1,.955,5.7Z" transform="translate(-22.235 -120.355)" fill="#e19e07"/>
                    <path id="Path_222" data-name="Path 222" d="M59.614,187.345a2.89,2.89,0,0,1,3.326,2.371h0a2.89,2.89,0,0,1-2.371,3.326l-23.748,3.979A2.89,2.89,0,0,1,33.5,194.65h0a2.89,2.89,0,0,1,2.371-3.326Z" transform="translate(-29.86 -165.855)" fill="#e19e07"/>
                    <path id="Path_223" data-name="Path 223" d="M70.834,254.275a2.89,2.89,0,0,1,3.326,2.371h0a2.89,2.89,0,0,1-2.371,3.326l-23.748,3.979a2.89,2.89,0,0,1-3.326-2.371h0a2.89,2.89,0,0,1,2.371-3.326Z" transform="translate(-37.486 -211.34)" fill="#e19e07"/>
                    <path id="Path_224" data-name="Path 224" d="M82.044,321.215a2.89,2.89,0,0,1,3.326,2.371h0A2.89,2.89,0,0,1,83,326.912l-23.748,3.979a2.89,2.89,0,0,1-3.326-2.371h0a2.89,2.89,0,0,1,2.371-3.326Z" transform="translate(-45.104 -256.833)" fill="#e19e07"/>
                    <path id="Path_225" data-name="Path 225" d="M93.254,388.155a2.89,2.89,0,0,1,3.326,2.371h0a2.89,2.89,0,0,1-2.371,3.326l-23.748,3.976a2.89,2.89,0,0,1-3.326-2.371h0a2.89,2.89,0,0,1,2.371-3.326Z" transform="translate(-52.722 -302.325)" fill="#e19e07"/>
                    <path id="Path_226" data-name="Path 226" d="M104.474,455.085a2.89,2.89,0,0,1,3.326,2.371h0a2.89,2.89,0,0,1-2.371,3.326l-23.748,3.979a2.89,2.89,0,0,1-3.326-2.371h0a2.89,2.89,0,0,1,2.371-3.326Z" transform="translate(-60.347 -347.811)" fill="#e19e07"/>
                    <path id="Path_227" data-name="Path 227" d="M115.684,522.025a2.89,2.89,0,0,1,3.326,2.371h0a2.89,2.89,0,0,1-2.371,3.326L92.891,531.7a2.89,2.89,0,0,1-3.326-2.371h0A2.89,2.89,0,0,1,91.936,526Z" transform="translate(-67.966 -393.304)" fill="#e19e07"/>
                    <path id="Path_228" data-name="Path 228" d="M126.9,588.965a2.89,2.89,0,0,1,3.326,2.371h0a2.89,2.89,0,0,1-2.371,3.326l-23.748,3.979a2.89,2.89,0,0,1-3.326-2.371h0a2.89,2.89,0,0,1,2.371-3.326Z" transform="translate(-75.591 -438.796)" fill="#e19e07"/>
                    <path id="Path_229" data-name="Path 229" d="M114.366,659.875l23.748-3.98a2.89,2.89,0,0,1,3.326,2.371h0a2.89,2.89,0,0,1-2.371,3.326l-23.748,3.979A2.89,2.89,0,0,1,112,663.2h0A2.89,2.89,0,0,1,114.366,659.875Z" transform="translate(-83.209 -484.282)" fill="#e19e07"/>
                  </g>
                </g>
              </g>
            </g>
            <g id="Group_82" data-name="Group 82" transform="translate(25.144 40.451)">
              <rect id="Rectangle_10" data-name="Rectangle 10" width="50.687" height="26.029" transform="translate(8.792)" fill="#d4f7fa"/>
              <path id="Path_230" data-name="Path 230" d="M200.507,295.7H157.58V214.34h34.135l8.792,15.078Z" transform="translate(-132.236 -203.392)" fill="#91bec2"/>
              <rect id="Rectangle_11" data-name="Rectangle 11" width="50.687" height="66.281" transform="translate(0 26.026)" fill="#d4f7fa"/>
              <path id="Path_231" data-name="Path 231" d="M137.959,214.34H87.272L78.48,229.418h50.687Z" transform="translate(-78.48 -203.392)" fill="#b4ebf0"/>
            </g>
            <path id="Path_233" data-name="Path 233" d="M537.31,1022.425l20.252-14.235,20.255,14.235Z" transform="translate(-370.614 -702.443)" fill="#bf8f67"/>
            <g id="Group_84" data-name="Group 84" transform="translate(171.278 53.136)">
              <path id="Path_234" data-name="Path 234" d="M515.8,271.276a33.927,33.927,0,0,1-4.191.743c-.993,0-3.473-3.137-3.473-3.137L493.5,266.56l-16.875-4.22v13.9s2.483,2.73,2.73,4.716a21.111,21.111,0,0,1,0,4.22v8.686l19.852.743,3.97-2.483.247,2.233s3.473,1.737,5.645,1.737,25.376,2.483,25.376,2.483V276.236Z" transform="translate(-476.617 -248.697)" fill="#f9cf00"/>
              <path id="Path_235" data-name="Path 235" d="M476.61,233.406s12.409-5.213,14.889-6.2,7.943-3.473,7.943-3.473l9.615-3.97,8.747,6.824s-1.24,2.108,0,3.351a4.787,4.787,0,0,0,3.473.993l1.49.743,8.443,10.913,3.226,4.716L515.8,242.339a33.928,33.928,0,0,1-4.191.743c-.993,0-3.473-3.137-3.473-3.137l-14.642-2.323Z" transform="translate(-476.61 -219.76)" fill="#ffda03"/>
              <path id="Path_236" data-name="Path 236" d="M497.6,294.952s-.743,4.1,0,5.344,5.213,1.365,5.213,1.365,2.73.372,3.723-1.612-1.987-5.094-1.987-5.094S499.336,293.827,497.6,294.952Z" transform="translate(-490.65 -270.521)" fill="#f7bc00"/>
              <path id="Path_237" data-name="Path 237" d="M572.806,319.578s-1.49,1.49,0,2.483a5.015,5.015,0,0,0,2.483.993s2.73-1.737,1.49-3.473S572.806,319.578,572.806,319.578Z" transform="translate(-541.535 -287.074)" fill="#f7bc00"/>
              <path id="Path_238" data-name="Path 238" d="M523.72,230.8a22.444,22.444,0,0,1,3.521,2.067c2.73,1.986,8.19,0,8.19,0s2.787-2.236,2.108-4.963c-.186-.743-.426-1.714-.679-2.727l-5.4,2.23S526.28,229.762,523.72,230.8Z" transform="translate(-508.626 -223.443)" fill="#f9cf00"/>
              <path id="Path_239" data-name="Path 239" d="M621.406,351.077c-1.49-1.737-5.706-1.987-5.706-1.987s-2.73,1.49-3.226,2.977a12.929,12.929,0,0,0-.141,3.973c4.287.433,8.8.907,11.585,1.2C623.358,355.271,622.38,352.214,621.406,351.077Z" transform="translate(-568.794 -307.653)" fill="#f7bc00"/>
            </g>
            <g id="Group_100" data-name="Group 100" transform="translate(72.419 77.077) rotate(-43)">
              <g id="Group_100-2" data-name="Group 100" transform="translate(0 0)">
                <path id="Path_248" data-name="Path 248" d="M80.2,10.786,70.75,1.571C60.443-2.083,57.143.62,47.615,9.858,34.734,22.35-5.166,68.154.558,82.67,13.371,85.332,90.368,31.153,80.2,10.786Z" transform="translate(0 19.746)" fill="#ff8024" fill-rule="evenodd"/>
                <path id="Path_249" data-name="Path 249" d="M0,21.317l9.452,9.215c7.985-6.882,13.863-8.562,22.36-17.949L23.024,14.1l3.1-8.879L16.116,8.44c3.93-7.2,3.387-3.284,1.673-8.44C10.1,4.075,5.453,14.707,0,21.317Z" transform="translate(70.75 0)" fill="#1a7d0e" fill-rule="evenodd"/>
                <path id="Path_250" data-name="Path 250" d="M1.4.232,21.69,20.064a.824.824,0,0,1,.015,1.161h0a.825.825,0,0,1-1.165.011L.247,1.4A.829.829,0,0,1,.232.24h0A.836.836,0,0,1,1.4.232Z" transform="translate(48.972 30.716)" fill="#e3670d" fill-rule="evenodd"/>
                <path id="Path_251" data-name="Path 251" d="M1.4.234l19.232,18.8a.824.824,0,0,1,.015,1.161h0a.825.825,0,0,1-1.165.011L.247,1.406A.829.829,0,0,1,.232.242h0A.832.832,0,0,1,1.4.234Z" transform="translate(36.828 44.291)" fill="#e3670d" fill-rule="evenodd"/>
                <path id="Path_252" data-name="Path 252" d="M1.393.233,16.626,15.12a.824.824,0,0,1,.015,1.161h0a.829.829,0,0,1-1.165.015L.247,1.41A.829.829,0,0,1,.232.245h0A.824.824,0,0,1,1.393.233Z" transform="translate(25.619 59.063)" fill="#e3670d" fill-rule="evenodd"/>
                <path id="Path_253" data-name="Path 253" d="M1.4.235,21.693,20.067a.825.825,0,0,1,.011,1.165h0a.825.825,0,0,1-1.165.011L.246,1.411A.825.825,0,0,1,.235.246h0A.825.825,0,0,1,1.4.235Z" transform="translate(42.358 37.481)" fill="#e3670d" fill-rule="evenodd"/>
                <path id="Path_254" data-name="Path 254" d="M1.4.232l19.232,18.8a.824.824,0,0,1,.015,1.161h0a.825.825,0,0,1-1.165.011L.247,1.4A.829.829,0,0,1,.232.24h0A.836.836,0,0,1,1.4.232Z" transform="translate(30.217 51.056)" fill="#e3670d" fill-rule="evenodd"/>
                <path id="Path_255" data-name="Path 255" d="M1.4.234,16.634,15.121a.821.821,0,0,1,.011,1.161h0a.829.829,0,0,1-1.165.015L.247,1.411A.824.824,0,0,1,.232.25h0A.826.826,0,0,1,1.4.234Z" transform="translate(19.001 65.829)" fill="#e3670d" fill-rule="evenodd"/>
              </g>
            </g>
            <g id="Group_101" data-name="Group 101" transform="translate(86.773 85.666) rotate(-43)">
              <g id="Group_100-3" data-name="Group 100" transform="translate(0 0)">
                <path id="Path_248-2" data-name="Path 248" d="M80.2,10.786,70.75,1.571C60.443-2.083,57.143.62,47.615,9.858,34.734,22.35-5.166,68.154.558,82.67,13.371,85.332,90.368,31.153,80.2,10.786Z" transform="translate(0 19.746)" fill="#ff9548" fill-rule="evenodd"/>
                <path id="Path_249-2" data-name="Path 249" d="M0,21.317l9.452,9.215c7.985-6.882,13.863-8.562,22.36-17.949L23.024,14.1l3.1-8.879L16.116,8.44c3.93-7.2,3.387-3.284,1.673-8.44C10.1,4.075,5.453,14.707,0,21.317Z" transform="translate(70.75 0)" fill="#39902e" fill-rule="evenodd"/>
                <path id="Path_250-2" data-name="Path 250" d="M1.4.232,21.69,20.064a.824.824,0,0,1,.015,1.161h0a.825.825,0,0,1-1.165.011L.247,1.4A.829.829,0,0,1,.232.24h0A.836.836,0,0,1,1.4.232Z" transform="translate(48.972 30.716)" fill="#e3670d" fill-rule="evenodd"/>
                <path id="Path_251-2" data-name="Path 251" d="M1.4.234l19.232,18.8a.824.824,0,0,1,.015,1.161h0a.825.825,0,0,1-1.165.011L.247,1.406A.829.829,0,0,1,.232.242h0A.832.832,0,0,1,1.4.234Z" transform="translate(36.828 44.291)" fill="#e3670d" fill-rule="evenodd"/>
                <path id="Path_252-2" data-name="Path 252" d="M1.393.233,16.626,15.12a.824.824,0,0,1,.015,1.161h0a.829.829,0,0,1-1.165.015L.247,1.41A.829.829,0,0,1,.232.245h0A.824.824,0,0,1,1.393.233Z" transform="translate(25.619 59.063)" fill="#e3670d" fill-rule="evenodd"/>
                <path id="Path_253-2" data-name="Path 253" d="M1.4.235,21.693,20.067a.825.825,0,0,1,.011,1.165h0a.825.825,0,0,1-1.165.011L.246,1.411A.825.825,0,0,1,.235.246h0A.825.825,0,0,1,1.4.235Z" transform="translate(42.358 37.481)" fill="#e3670d" fill-rule="evenodd"/>
                <path id="Path_254-2" data-name="Path 254" d="M1.4.232l19.232,18.8a.824.824,0,0,1,.015,1.161h0a.825.825,0,0,1-1.165.011L.247,1.4A.829.829,0,0,1,.232.24h0A.836.836,0,0,1,1.4.232Z" transform="translate(30.217 51.056)" fill="#e3670d" fill-rule="evenodd"/>
                <path id="Path_255-2" data-name="Path 255" d="M1.4.234,16.634,15.121a.821.821,0,0,1,.011,1.161h0a.829.829,0,0,1-1.165.015L.247,1.411A.824.824,0,0,1,.232.25h0A.826.826,0,0,1,1.4.234Z" transform="translate(19.001 65.829)" fill="#e3670d" fill-rule="evenodd"/>
              </g>
            </g>
            <g id="Group_104" data-name="Group 104" transform="translate(58.982 53.96)">
              <g id="Group_102" data-name="Group 102" transform="translate(0)">
                <path id="Path_256" data-name="Path 256" d="M26.711,32.66c-.493.661-.4.727.019,1.68.936,2.129,3.106.628,4.577,2.6a29.764,29.764,0,0,1-2.941,2.214c-1.691-.73-2.649-1.616-4.951-1.663-2.806-.058-3.307.953-5.207,1.413-.526-.386-.862-.7-1.526-1.181-.688-.5-.972-.474-1.454-1.044,1.817-1.181,3.263-.9,4.907-1.627l.3-2.7c-7.069-.529-7.906,3.092-9.467,3.53-.741.209-1.548.162-2.316.419C2.451,38.379-.176,47.059.573,54.8c.721,7.474,6.449,22,13.589,24.378,2.25.752,2.456.019,4.312-.333a5.946,5.946,0,0,0,4.943,2.58c2.291-.113,3.516-1.622,4.7-2.756,1.366.168,3.368,2.316,7.575-1.181,8.594-7.146,15.9-29.539,6.168-38.923-2.883-2.781-4.271-2.018-5.317-2.88C34.4,33.921,32.515,31.173,26.711,32.66Z" transform="translate(-0.325 -23.358)" fill="#e24b35" fill-rule="evenodd"/>
                <path id="Path_257" data-name="Path 257" d="M92.15,34.023c.11,1.206.1.936,1.33,1.173,1.7.33,4.194.975,4.758,2.715a8.053,8.053,0,0,0-3.125,2.211c9.2,14.608,5.89,28.575-.083,39.383,8.473,5.1,17.089-14.774,18.02-24.081.661-6.606-1.564-13.6-5.169-16.536a9.874,9.874,0,0,0-3.6-1.848C101,36.036,100.777,31.383,92.15,34.023Z" transform="translate(-66.775 -24.074)" fill="#d23127" fill-rule="evenodd"/>
                <path id="Path_258" data-name="Path 258" d="M21.016,34.174c-.11,1.206-.1.936-1.33,1.173-1.7.33-4.194.975-4.758,2.715a8.053,8.053,0,0,1,3.125,2.211c-9.2,14.608-5.89,28.575.083,39.383C9.665,84.754,1.049,64.886.115,55.576c-.661-6.606,1.564-13.6,5.169-16.536a9.874,9.874,0,0,1,3.6-1.848C12.165,36.19,12.388,31.533,21.016,34.174Z" transform="translate(0.001 -24.184)" fill="#d23127" fill-rule="evenodd"/>
                <path id="Path_259" data-name="Path 259" d="M71.05,99.417c0,10.987,7.165,11.073,7.165,0C78.215,87.7,71.05,87.824,71.05,99.417Z" transform="translate(-51.485 -65.707)" fill="#ed7065" fill-rule="evenodd"/>
                <path id="Path_260" data-name="Path 260" d="M59.324,8.991l-.3,2.7c-1.647.73-3.09.446-4.907,1.627.485.57.766.548,1.454,1.044.661.476,1,.8,1.526,1.181,1.9-.46,2.4-1.47,5.207-1.413,2.3.047,3.26.933,4.951,1.663A29.339,29.339,0,0,0,70.2,13.578c-1.47-1.972-3.64-.474-4.577-2.6-.419-.95-.512-1.019-.019-1.68-.4.1-.752.669-.785-1.908C64.769,3.354,66.385,1.955,66.737,0,62.13.074,60.853,5.067,59.324,8.991Z" transform="translate(-39.217)" fill="#6ea830" fill-rule="evenodd"/>
              </g>
              <g id="Group_103" data-name="Group 103" transform="translate(24.915 8.969)">
                <path id="Path_261" data-name="Path 261" d="M109.034,59.526c-.2.8-.085.826.672,1.539,1.691,1.594,3.106-.631,5.229.611a29.412,29.412,0,0,1-1.848,3.186c-1.842-.014-3.07-.457-5.207.4-2.608,1.041-2.674,2.167-4.243,3.332-.633-.149-1.068-.311-1.864-.493a6.01,6.01,0,0,1-1.746-.394c1.214-1.8,2.655-2.1,3.885-3.412l-.779-2.6c-6.713,2.272-6.072,5.934-7.339,6.945-.6.479-1.363.752-1.969,1.289-4.9,4.329-3.932,13.344-.226,20.185,3.58,6.6,14.515,17.742,22.018,17.15,2.365-.187,2.269-.939,3.841-1.988a5.936,5.936,0,0,0,5.557.449c2.065-1,2.6-2.867,3.255-4.373,1.325-.377,4,.821,6.515-4.042,5.127-9.933,3.125-33.4-9.5-38.249-3.74-1.435-4.72-.193-6.02-.578C116.607,57.689,113.8,55.891,109.034,59.526Z" transform="translate(-90.48 -50.513)" fill="#e24b35" fill-rule="evenodd"/>
                <path id="Path_262" data-name="Path 262" d="M155.39,60.763c.573,1.068.46.821,1.682.562,1.693-.358,4.241-.738,5.439.644a8.014,8.014,0,0,0-2.016,3.255c14.168,9.864,16.566,24.015,15.28,36.3,9.789,1.388,9.977-20.267,7.2-29.2-1.966-6.342-6.744-11.915-11.207-13.212a9.9,9.9,0,0,0-4.04-.3C164.326,59.166,162.3,54.967,155.39,60.763Z" transform="translate(-137.516 -50.759)" fill="#d23127" fill-rule="evenodd"/>
                <path id="Path_263" data-name="Path 263" d="M104.421,75.21c.369,1.154.27.9-.766,1.6-1.435.967-3.481,2.533-3.321,4.356a8.016,8.016,0,0,1,3.74.818c-2.776,17.04,5.719,28.608,15.432,36.233-5.816,8-21.5-6.939-25.984-15.148-3.186-5.824-3.863-13.135-1.688-17.244a9.887,9.887,0,0,1,2.6-3.106C97.058,80.516,95.45,76.144,104.421,75.21Z" transform="translate(-90.545 -63.468)" fill="#d23127" fill-rule="evenodd"/>
                <path id="Path_264" data-name="Path 264" d="M165.6,131.354c4.285,10.117,10.916,7.4,6.6-2.795C167.632,117.77,161.081,120.68,165.6,131.354Z" transform="translate(-143.813 -97.205)" fill="#ed7065" fill-rule="evenodd"/>
                <path id="Path_265" data-name="Path 265" d="M128.236,43.747l.779,2.6c-1.231,1.314-2.671,1.616-3.885,3.412a5.923,5.923,0,0,0,1.746.394c.8.182,1.231.344,1.864.493,1.57-1.162,1.638-2.291,4.243-3.332,2.14-.854,3.368-.413,5.207-.4a29.883,29.883,0,0,0,1.848-3.186c-2.123-1.242-3.539.986-5.229-.611-.755-.713-.87-.738-.672-1.539-.328.245-.432.909-1.468-1.454-1.622-3.7-.68-5.618-1.118-7.556C127.344,34.44,128.115,39.534,128.236,43.747Z" transform="translate(-115.588 -32.57)" fill="#6ea830" fill-rule="evenodd"/>
              </g>
            </g>
            <rect id="Rectangle_14" data-name="Rectangle 14" width="213.884" height="323.727" transform="translate(0 86.604)" fill="#d3a97e"/>
          </g>
        </g>
        <path id="Path_240" data-name="Path 240" d="M997,256.124v-4.785l3.951,4.785,4.666-4.785,4.665,4.785,4.666-4.785,4.665,4.785,4.666-4.785,4.665,4.785,4.666-4.785,4.666,4.785,4.665-4.785,4.665,4.785,4.666-4.785,4.666,4.785,4.665-4.785,4.666,4.785,4.665-4.785,4.665,4.785,4.666-4.785,4.665,4.785,4.666-4.785,4.666,4.785,4.665-4.785,4.666,4.785,4.665-4.785,4.666,4.785,4.666-4.785,4.665,4.785,4.666-4.785,4.665,4.785,4.666-4.785,4.666,4.785,4.665-4.785,4.666,4.785,4.666-4.785,4.665,4.785,4.666-4.785,4.665,4.785,4.666-4.785,4.666,4.785,4.665-4.785,4.666,4.785,4.666-4.785,4.666,4.785,4.665-4.785,4.666,4.785,4.666-4.785v14.008H997Z" transform="translate(-997 -169.471)" fill="#d3a97e"/>
      </g>
      <g id="Group_94" data-name="Group 94" transform="translate(510.848 211.966)">
        <g id="Group_93" data-name="Group 93">
          <rect id="Rectangle_22" data-name="Rectangle 22" width="18.152" height="323.846" fill="#d5aa78"/>
          <rect id="Rectangle_23" data-name="Rectangle 23" width="10.127" height="323.846" fill="#c69b70"/>
        </g>
        <path id="Path_245" data-name="Path 245" d="M430.08,1495.125l8.983-10.5,8.983,10.5Z" transform="translate(-429.895 -1171.279)" fill="#bf8f67"/>
      </g>
      <path id="Path_247" data-name="Path 247" d="M2463.819,241.136l1.726-4.11,1.885,4.11,2.417-4.11,1.889,4.11v1.907h-7.917Z" transform="translate(-1942.737 -29.169)" fill="#d5ab78"/>
      <path id="Path_246" data-name="Path 246" d="M2450.1,236.53l1.762,4.72,1.787-4.72,1.465,4.72,1.74-4.72,1.085,4.72,1.563-4.72.635,4.72-2.2,4.18-7.839-1.3Z" transform="translate(-1939.205 -29.178)" fill="#c69c70"/>
    </g>
  </g>
</svg>
