<svg xmlns="http://www.w3.org/2000/svg" width="319" height="564.206" viewBox="0 0 319 564.206">
  <g id="Group_107" data-name="Group 107" transform="translate(-297 -125.481)">
    <g id="Group_89" data-name="Group 89" transform="translate(297 125.481)">
      <g id="Group_87" data-name="Group 87" transform="translate(0 0)">
        <g id="Group_56" data-name="Group 56" transform="translate(194.384 28.802) rotate(-9)">
          <path id="Path_146" data-name="Path 146" d="M14.723,7.309c-.41.507-.877,1.128-1.405,1.89-2.326,3.366-6.309,7.961-6.309,7.961L0,22.574a95.839,95.839,0,0,0,2.789-9.992C3.78,7.428,9.828,0,9.828,0S12.119,3.366,14.723,7.309Z" transform="translate(55.412 79.347)" fill="#225e60"/>
          <path id="Path_147" data-name="Path 147" d="M2.4,0S5.1,5.546,7.458,9.961A28.548,28.548,0,0,1,10.19,20.014S6.335,7.432,0,.207Z" transform="translate(64.813 86.237)" fill="#225e60"/>
          <path id="Path_148" data-name="Path 148" d="M2.392,0s2.7,5.547,5.062,9.961A28.6,28.6,0,0,1,10.19,20.014S6.335,7.432,0,.207Z" transform="translate(60.734 88.427)" fill="#225e60"/>
          <path id="Path_149" data-name="Path 149" d="M2.4,0S5.1,5.546,7.458,9.961A28.552,28.552,0,0,1,10.19,20.014S6.335,7.432,0,.207Z" transform="translate(55.628 89.462)" fill="#225e60"/>
          <path id="Path_150" data-name="Path 150" d="M50.83,103.194c.727-.366,12.965-12.736,17.785-18.626S83.783,57.509,83.783,57.509,95.418,37.473,98.4,33.156s6.851-19.115,7.185-21.318c0,0-4.454,2.234-5.912,2.212s.339-6.013.339-6.013L102,3.3S99.894.952,94.136,0c0,0-24.442,2.348-36.618,6.912S21.869,24.79,21.869,24.79L0,85.977C.009,85.969,37.464,109.895,50.83,103.194Z" transform="translate(0 0.009)" fill="#90b8bf"/>
          <path id="Path_151" data-name="Path 151" d="M40.663,14.917,37.248,0s-3.78,6.917-5.617,8.489-7.9,6.947-7.9,6.947S4.692,37.054,0,41.244c0,0,17.776-6.027,21.878-8.115s14.181-7.243,14.181-7.243Z" transform="translate(28.252 43.103)" fill="#32848b"/>
          <path id="Path_152" data-name="Path 152" d="M30.411,0c5.758.952,7.864,3.3,7.864,3.3L36.288,8.036s-1.8,5.991-.339,6.013,5.912-2.212,5.912-2.212c-.339,2.2-4.2,17-7.185,21.318-.8,1.15-2.207,3.419-3.85,6.128-5.8-.982-13.441-2.485-16.12-3.956C10.177,32.843,2.141,21.256.679,15.661.1,13.428-.039,9.234.009,5,12.781,1.7,30.411,0,30.411,0Z" transform="translate(63.729 0)" fill="#32848b"/>
          <path id="Path_153" data-name="Path 153" d="M9.645,2.437s.528,4.326-2.406,5.732S.918,7.86.918,7.86s-2.194-3.855.2-6.071S6.389-.982,9.645,2.437Z" transform="translate(80.504 4.977)" fill="#95d0dd"/>
          <path id="Path_154" data-name="Path 154" d="M3.14.791S3.312,2.2,2.356,2.655A2.6,2.6,0,0,1,.3,2.554S-.415,1.3.365.58A1.76,1.76,0,0,1,3.14.791Z" transform="translate(84.278 6.627)" fill="#225e60"/>
        </g>
        <g id="Group_86" data-name="Group 86" transform="translate(0)">
          <g id="Group_57" data-name="Group 57" transform="translate(97.265)">
            <path id="XMLID_9_" d="M0,0H24.509V15.477H0Z" transform="translate(15.773)" fill="#d0d0d0"/>
            <path id="XMLID_8_" d="M248.416,93.528a3.112,3.112,0,0,0,.818-2.063V80.6c0-6.65-8.408-19.238-13.75-26.564a22.418,22.418,0,0,1-4.311-13.2V39.18H211.251v1.648a22.409,22.409,0,0,1-4.311,13.2C201.6,61.358,193.19,73.946,193.19,80.6V91.47a3.112,3.112,0,0,0,.818,2.063,3.007,3.007,0,0,1,.759,1.991v2.11a3,3,0,0,1-.786,2.027h0a3.007,3.007,0,0,0-.79,2.027v9.7a3.112,3.112,0,0,0,.818,2.063,3.007,3.007,0,0,1,.759,1.991v2.11a3.112,3.112,0,0,1-.818,2.063,3.007,3.007,0,0,0-.759,1.991v9.7a3.112,3.112,0,0,0,.818,2.063,3.007,3.007,0,0,1,.759,1.991v2.11a3.112,3.112,0,0,1-.818,2.063,3.007,3.007,0,0,0-.759,1.991v9.7a3.112,3.112,0,0,0,.818,2.063,3.007,3.007,0,0,1,.759,1.991v2.11a3.112,3.112,0,0,1-.818,2.063,3.007,3.007,0,0,0-.759,1.991v9.7a3.112,3.112,0,0,0,.818,2.063,3.007,3.007,0,0,1,.759,1.991v2.11a3.112,3.112,0,0,1-.818,2.063,3.007,3.007,0,0,0-.759,1.991v9.7a3.112,3.112,0,0,0,.818,2.063,3.007,3.007,0,0,1,.759,1.991v2.11a3.112,3.112,0,0,1-.818,2.063,3.007,3.007,0,0,0-.759,1.991v32.514a5.3,5.3,0,0,0,5.3,5.3h45.431a5.3,5.3,0,0,0,5.3-5.3V201.3a3.112,3.112,0,0,0-.818-2.062,3.007,3.007,0,0,1-.759-1.991v-2.11a3.112,3.112,0,0,1,.818-2.062,3.007,3.007,0,0,0,.759-1.991v-9.7a3.112,3.112,0,0,0-.818-2.063,3.007,3.007,0,0,1-.759-1.991v-2.11a3.112,3.112,0,0,1,.818-2.062,3.007,3.007,0,0,0,.759-1.991v-9.7a3.112,3.112,0,0,0-.818-2.063,3.007,3.007,0,0,1-.759-1.991v-2.11a3.112,3.112,0,0,1,.818-2.062,3.007,3.007,0,0,0,.759-1.991v-9.7a3.112,3.112,0,0,0-.818-2.062,3.007,3.007,0,0,1-.759-1.991v-2.11a3.112,3.112,0,0,1,.818-2.063,3.007,3.007,0,0,0,.759-1.991v-9.7a3.112,3.112,0,0,0-.818-2.063,3.007,3.007,0,0,1-.759-1.991v-2.11a3.112,3.112,0,0,1,.818-2.063,3.007,3.007,0,0,0,.759-1.991v-9.7a3,3,0,0,0-.786-2.027h0a3,3,0,0,1-.786-2.027v-2.11A3.041,3.041,0,0,1,248.416,93.528Z" transform="translate(-193.19 -23.699)" fill="#e6e7e8"/>
            <path id="Path_155" data-name="Path 155" d="M200.339,307.913a4.114,4.114,0,0,1-4.109-4.109V271.29a1.813,1.813,0,0,1,.474-1.221,4.18,4.18,0,0,0,1.1-2.833v-2.11a4.18,4.18,0,0,0-1.1-2.833,1.794,1.794,0,0,1-.474-1.221v-9.7a1.813,1.813,0,0,1,.474-1.221,4.18,4.18,0,0,0,1.1-2.833V245.2a4.18,4.18,0,0,0-1.1-2.833,1.794,1.794,0,0,1-.474-1.221v-9.7a1.813,1.813,0,0,1,.474-1.221,4.18,4.18,0,0,0,1.1-2.833v-2.11a4.18,4.18,0,0,0-1.1-2.833,1.794,1.794,0,0,1-.474-1.221v-9.7a1.813,1.813,0,0,1,.474-1.221,4.18,4.18,0,0,0,1.1-2.833v-2.11a4.18,4.18,0,0,0-1.1-2.833,1.794,1.794,0,0,1-.474-1.221v-9.7a1.813,1.813,0,0,1,.474-1.221,4.18,4.18,0,0,0,1.1-2.833v-2.11a4.18,4.18,0,0,0-1.1-2.833,1.794,1.794,0,0,1-.474-1.221v-9.7a1.812,1.812,0,0,1,.474-1.221,4.18,4.18,0,0,0,1.1-2.833v-2.11a4.18,4.18,0,0,0-1.1-2.833,1.794,1.794,0,0,1-.474-1.221V154.9h53.653v6.567a1.812,1.812,0,0,1-.474,1.221,4.18,4.18,0,0,0-1.1,2.833v2.11a4.18,4.18,0,0,0,1.1,2.833,1.794,1.794,0,0,1,.474,1.221v9.7a1.812,1.812,0,0,1-.474,1.221,4.18,4.18,0,0,0-1.1,2.833v2.11a4.18,4.18,0,0,0,1.1,2.833,1.793,1.793,0,0,1,.474,1.221v9.7a1.812,1.812,0,0,1-.474,1.221,4.18,4.18,0,0,0-1.1,2.833v2.11a4.179,4.179,0,0,0,1.1,2.833,1.794,1.794,0,0,1,.474,1.221v9.7a1.812,1.812,0,0,1-.474,1.221,4.18,4.18,0,0,0-1.1,2.833v2.11a4.18,4.18,0,0,0,1.1,2.833,1.793,1.793,0,0,1,.474,1.221v9.7a1.813,1.813,0,0,1-.474,1.221,4.18,4.18,0,0,0-1.1,2.833v2.11a4.18,4.18,0,0,0,1.1,2.833,1.794,1.794,0,0,1,.474,1.221v9.7a1.813,1.813,0,0,1-.474,1.221,4.18,4.18,0,0,0-1.1,2.833v2.11a4.18,4.18,0,0,0,1.1,2.833,1.794,1.794,0,0,1,.474,1.221v32.514a4.114,4.114,0,0,1-4.109,4.109H200.339Z" transform="translate(-195.029 -93.696)" fill="#309a51"/>
            <path id="XMLID_2_" d="M278.392,30.333a22.418,22.418,0,0,1-4.311-13.2V15.481h2.292V0H264.12V215.41h22.715a5.293,5.293,0,0,0,5.3-5.3V177.593a3,3,0,0,0-.786-2.027c-.039-.044-.075-.087-.111-.13s-.055-.067-.083-.1-.055-.083-.083-.122l-.071-.107c-.028-.043-.047-.087-.071-.13s-.04-.071-.059-.111-.039-.091-.063-.138-.036-.075-.047-.111-.036-.1-.051-.15a.905.905,0,0,1-.036-.111c-.016-.051-.028-.107-.039-.162a1.027,1.027,0,0,1-.024-.107,1.441,1.441,0,0,1-.024-.182c0-.032-.008-.059-.012-.091-.008-.091-.012-.186-.012-.277v-2.11a3.112,3.112,0,0,1,.818-2.062c.028-.032.051-.063.079-.1s.055-.067.083-.1.055-.083.083-.122l.071-.107c.028-.043.047-.087.071-.13s.04-.071.059-.111a1.462,1.462,0,0,0,.059-.138c.016-.04.036-.075.047-.111s.032-.1.051-.146.028-.075.036-.111c.016-.051.024-.107.04-.158a1.021,1.021,0,0,0,.024-.107,1.437,1.437,0,0,0,.024-.182c0-.032.008-.059.012-.091.008-.091.012-.186.012-.277v-9.7a3,3,0,0,0-.786-2.027c-.039-.043-.075-.087-.111-.13s-.055-.067-.083-.1-.055-.083-.083-.122L291,155.19c-.028-.043-.047-.087-.071-.13s-.039-.071-.059-.111-.039-.091-.063-.138-.036-.075-.047-.111-.035-.1-.051-.15a.9.9,0,0,1-.035-.111c-.016-.051-.028-.107-.04-.162a1.051,1.051,0,0,1-.024-.107,1.424,1.424,0,0,1-.024-.182c0-.032-.008-.059-.012-.091-.008-.091-.012-.186-.012-.277v-2.11a3.112,3.112,0,0,1,.818-2.063c.028-.032.051-.063.079-.1s.055-.067.083-.1.055-.083.083-.122l.071-.107c.028-.043.047-.087.071-.13s.04-.071.059-.111a1.458,1.458,0,0,0,.059-.138c.016-.04.035-.075.047-.111s.032-.1.051-.146.028-.075.036-.111c.016-.051.024-.107.039-.158a1.053,1.053,0,0,0,.024-.107,1.442,1.442,0,0,0,.024-.182c0-.032.008-.059.012-.091.008-.091.012-.186.012-.277v-9.7a3,3,0,0,0-.786-2.027c-.04-.043-.075-.087-.111-.13s-.055-.067-.083-.1-.055-.083-.083-.122l-.071-.107c-.028-.043-.047-.087-.071-.13s-.04-.071-.059-.111-.04-.091-.063-.138-.036-.075-.048-.111-.035-.1-.051-.15a.918.918,0,0,1-.036-.111c-.016-.051-.028-.107-.04-.162a1.035,1.035,0,0,1-.024-.107,1.453,1.453,0,0,1-.024-.182c0-.032-.008-.059-.012-.091-.008-.091-.012-.186-.012-.277v-2.11a3.112,3.112,0,0,1,.818-2.063c.028-.032.051-.063.079-.1s.055-.067.079-.1.055-.083.083-.122l.071-.107c.028-.043.047-.087.071-.13a.969.969,0,0,0,.059-.111c.024-.043.04-.091.063-.138s.035-.075.047-.111.036-.1.051-.15a.906.906,0,0,0,.036-.111c.016-.051.028-.107.039-.158a1.037,1.037,0,0,0,.024-.107,1.442,1.442,0,0,0,.024-.182c0-.032.008-.059.012-.091.008-.091.012-.186.012-.277v-9.7a3,3,0,0,0-.786-2.027c-.039-.043-.075-.087-.111-.13s-.055-.067-.083-.1-.055-.083-.083-.122l-.071-.107c-.028-.043-.047-.087-.071-.13s-.04-.071-.059-.111-.04-.091-.063-.138-.036-.075-.047-.111-.036-.1-.051-.15a.9.9,0,0,1-.036-.111c-.016-.051-.028-.107-.04-.162a1.045,1.045,0,0,1-.024-.107,1.42,1.42,0,0,1-.024-.182c0-.032-.008-.059-.012-.091-.008-.091-.012-.186-.012-.277v-2.11a3.112,3.112,0,0,1,.818-2.063c.028-.032.051-.063.079-.1s.055-.067.083-.1.055-.083.083-.122l.071-.107c.028-.043.047-.087.071-.13a.983.983,0,0,0,.059-.111,1.457,1.457,0,0,0,.059-.138c.016-.039.036-.075.047-.111s.035-.1.051-.15c.012-.036.028-.075.036-.111.016-.051.028-.107.04-.158a1.069,1.069,0,0,0,.024-.107,1.436,1.436,0,0,0,.024-.182c0-.032.008-.059.012-.091.008-.091.012-.186.012-.277v-9.7a3,3,0,0,0-.786-2.027c-.04-.043-.075-.087-.111-.13s-.055-.067-.083-.1-.055-.083-.083-.122l-.071-.107c-.028-.043-.047-.087-.071-.13s-.04-.071-.059-.111-.039-.091-.063-.138-.036-.075-.047-.111-.036-.1-.051-.15a.9.9,0,0,1-.036-.111c-.016-.051-.028-.107-.04-.162a1.036,1.036,0,0,1-.024-.107,1.419,1.419,0,0,1-.024-.182c0-.032-.008-.059-.012-.091-.008-.091-.012-.186-.012-.277V91.75a3.113,3.113,0,0,1,.818-2.063c.028-.032.051-.063.079-.1s.055-.067.083-.1.055-.083.083-.122l.071-.107c.028-.043.048-.087.071-.13a1,1,0,0,0,.059-.111,1.459,1.459,0,0,0,.059-.138c.016-.04.036-.075.048-.111s.035-.1.051-.15c.012-.036.028-.075.036-.111.016-.051.028-.107.04-.158a1.062,1.062,0,0,0,.024-.107,1.413,1.413,0,0,0,.024-.182c0-.032.008-.059.012-.091.008-.091.012-.186.012-.277v-9.7a3,3,0,0,0-.786-2.027h0a3,3,0,0,1-.786-2.027v-2.11c0-.095,0-.186.012-.277,0-.032.008-.059.012-.091.008-.059.016-.122.024-.182l.024-.107c.012-.055.024-.107.04-.162.012-.036.024-.071.036-.111s.032-.1.051-.15.032-.075.047-.111a1.51,1.51,0,0,1,.063-.138l.059-.107c.024-.043.047-.087.075-.13s.047-.071.071-.1.055-.083.083-.122.055-.067.079-.1.071-.091.111-.13a3,3,0,0,0,.786-2.027V56.9C292.138,50.247,283.734,37.663,278.392,30.333Z" transform="translate(-236.094)" fill="#e6e7e8"/>
          </g>
          <g id="Group_70" data-name="Group 70" transform="translate(87.752 41.324)">
            <g id="Group_60" data-name="Group 60" transform="translate(0 2.366)">
              <path id="Path_156" data-name="Path 156" d="M256.036,212.38a124.968,124.968,0,0,1-48.456,39.98c.463,2.85.427,2.617.89,5.467A73.94,73.94,0,0,0,284.561,153.1l-5.472.846A125.049,125.049,0,0,1,256.036,212.38Z" transform="translate(-207.58 -153.096)" fill="#e19e07"/>
              <g id="Group_59" data-name="Group 59">
                <g id="Group_58" data-name="Group 58">
                  <path id="Path_157" data-name="Path 157" d="M284.557,153.09l-5.472.846a125.663,125.663,0,0,1-71.505,98.418c.463,2.85.427,2.617.89,5.467A120.732,120.732,0,0,0,284.557,153.09Z" transform="translate(-207.58 -153.09)" fill="#ffb70c"/>
                </g>
              </g>
            </g>
            <g id="Group_63" data-name="Group 63" transform="translate(22.741 1.639)">
              <path id="Path_158" data-name="Path 158" d="M298.285,215.355A124.97,124.97,0,0,1,259.2,264.538c1.044,2.692.96,2.471,2,5.163a73.94,73.94,0,0,0,52.65-118.261c-2.7,1.022-2.48.938-5.176,1.965A124.925,124.925,0,0,1,298.285,215.355Z" transform="translate(-259.2 -151.44)" fill="#e19e07"/>
              <g id="Group_62" data-name="Group 62" transform="translate(0 0)">
                <g id="Group_61" data-name="Group 61">
                  <path id="Path_159" data-name="Path 159" d="M313.859,151.44c-2.7,1.022-2.48.938-5.177,1.965A125.674,125.674,0,0,1,259.2,264.542c1.044,2.692.96,2.471,2,5.163A120.736,120.736,0,0,0,313.859,151.44Z" transform="translate(-259.2 -151.44)" fill="#ffb70c"/>
                </g>
              </g>
            </g>
            <g id="Group_66" data-name="Group 66" transform="translate(47.707 0.837)">
              <path id="Path_160" data-name="Path 160" d="M343.876,215.381a124.977,124.977,0,0,1-28.006,56.232c1.582,2.414,1.454,2.216,3.036,4.63A73.939,73.939,0,0,0,345.819,149.62c-2.427,1.564-2.229,1.436-4.657,3A124.9,124.9,0,0,1,343.876,215.381Z" transform="translate(-315.87 -149.62)" fill="#e19e07"/>
              <g id="Group_65" data-name="Group 65">
                <g id="Group_64" data-name="Group 64">
                  <path id="Path_161" data-name="Path 161" d="M345.823,149.62c-2.427,1.564-2.229,1.436-4.657,3a125.672,125.672,0,0,1-25.3,118.992c1.582,2.414,1.454,2.216,3.035,4.63A120.723,120.723,0,0,0,345.823,149.62Z" transform="translate(-315.87 -149.62)" fill="#ffb70c"/>
                </g>
              </g>
            </g>
            <g id="Group_69" data-name="Group 69" transform="translate(73.814)">
              <path id="Path_162" data-name="Path 162" d="M390.831,212.445a124.958,124.958,0,0,1-15.7,60.826c2.049,2.031,1.881,1.868,3.934,3.9a73.939,73.939,0,0,0,0-129.451c-2.049,2.031-1.881,1.868-3.934,3.9A124.923,124.923,0,0,1,390.831,212.445Z" transform="translate(-375.13 -147.72)" fill="#e19e07"/>
              <g id="Group_68" data-name="Group 68">
                <g id="Group_67" data-name="Group 67">
                  <path id="Path_163" data-name="Path 163" d="M379.064,147.72c-2.049,2.031-1.881,1.868-3.934,3.9a125.673,125.673,0,0,1,0,121.653c2.049,2.031,1.881,1.868,3.934,3.9a120.734,120.734,0,0,0,0-129.451Z" transform="translate(-375.13 -147.72)" fill="#ffb70c"/>
                </g>
              </g>
            </g>
          </g>
          <g id="Group_81" data-name="Group 81" transform="translate(0 1.015)">
            <path id="Path_220" data-name="Path 220" d="M24.31,56.626h0a29.114,29.114,0,0,1,33.526,23.9l41.482,247.6a29.114,29.114,0,0,1-23.9,33.526h0a29.114,29.114,0,0,1-33.526-23.9L.406,90.152A29.116,29.116,0,0,1,24.31,56.626Z" transform="translate(-0.001 -56.221)" fill="#ffb70c"/>
            <g id="Group_80" data-name="Group 80" transform="translate(9.795 28.254)">
              <g id="Group_79" data-name="Group 79">
                <g id="Group_78" data-name="Group 78">
                  <path id="Path_221" data-name="Path 221" d="M59.517,128.243l-32.653,5.472a3.971,3.971,0,1,1-1.313-7.833L58.2,120.41a3.971,3.971,0,0,1,1.313,7.833Z" transform="translate(-22.235 -120.355)" fill="#e19e07"/>
                  <path id="Path_222" data-name="Path 222" d="M69.424,187.36A3.974,3.974,0,0,1,74,190.62h0a3.974,3.974,0,0,1-3.26,4.573l-32.653,5.472a3.974,3.974,0,0,1-4.573-3.26h0a3.974,3.974,0,0,1,3.26-4.573Z" transform="translate(-28.512 -157.811)" fill="#e19e07"/>
                  <path id="Path_223" data-name="Path 223" d="M80.644,254.29a3.974,3.974,0,0,1,4.573,3.26h0a3.974,3.974,0,0,1-3.26,4.573L49.3,267.595a3.974,3.974,0,0,1-4.573-3.26h0a3.974,3.974,0,0,1,3.26-4.573Z" transform="translate(-34.789 -195.255)" fill="#e19e07"/>
                  <path id="Path_224" data-name="Path 224" d="M91.854,321.23a3.974,3.974,0,0,1,4.573,3.26h0a3.974,3.974,0,0,1-3.26,4.573l-32.653,5.472a3.974,3.974,0,0,1-4.573-3.26h0A3.974,3.974,0,0,1,59.2,326.7Z" transform="translate(-41.061 -232.704)" fill="#e19e07"/>
                  <path id="Path_225" data-name="Path 225" d="M103.064,388.17a3.974,3.974,0,0,1,4.573,3.26h0a3.973,3.973,0,0,1-3.26,4.573L71.723,401.47a3.974,3.974,0,0,1-4.573-3.26h0a3.974,3.974,0,0,1,3.26-4.573Z" transform="translate(-47.332 -270.154)" fill="#e19e07"/>
                  <path id="Path_226" data-name="Path 226" d="M114.284,455.1a3.974,3.974,0,0,1,4.573,3.26h0a3.974,3.974,0,0,1-3.26,4.573L82.943,468.4a3.974,3.974,0,0,1-4.573-3.26h0a3.974,3.974,0,0,1,3.26-4.573Z" transform="translate(-53.609 -307.598)" fill="#e19e07"/>
                  <path id="Path_227" data-name="Path 227" d="M125.494,522.04a3.973,3.973,0,0,1,4.573,3.26h0a3.974,3.974,0,0,1-3.26,4.573l-32.653,5.472a3.974,3.974,0,0,1-4.573-3.26h0a3.974,3.974,0,0,1,3.26-4.573Z" transform="translate(-59.881 -345.048)" fill="#e19e07"/>
                  <path id="Path_228" data-name="Path 228" d="M136.714,588.98a3.974,3.974,0,0,1,4.573,3.26h0a3.974,3.974,0,0,1-3.26,4.573l-32.653,5.472a3.974,3.974,0,0,1-4.573-3.26h0a3.974,3.974,0,0,1,3.26-4.573Z" transform="translate(-66.158 -382.498)" fill="#e19e07"/>
                  <path id="Path_229" data-name="Path 229" d="M115.27,661.382l32.653-5.472a3.974,3.974,0,0,1,4.573,3.26h0a3.973,3.973,0,0,1-3.26,4.573l-32.653,5.472a3.974,3.974,0,0,1-4.573-3.26h0A3.974,3.974,0,0,1,115.27,661.382Z" transform="translate(-72.43 -419.942)" fill="#e19e07"/>
                </g>
              </g>
            </g>
          </g>
          <g id="Group_82" data-name="Group 82" transform="translate(34.574 55.62)">
            <rect id="Rectangle_10" data-name="Rectangle 10" width="69.695" height="35.79" transform="translate(12.089)" fill="#d4f7fa"/>
            <path id="Path_230" data-name="Path 230" d="M216.6,326.208H157.58V214.34h46.936L216.6,235.072Z" transform="translate(-122.733 -199.287)" fill="#91bec2"/>
            <rect id="Rectangle_11" data-name="Rectangle 11" width="69.695" height="91.136" transform="translate(0 35.786)" fill="#d4f7fa"/>
            <path id="Path_231" data-name="Path 231" d="M160.263,214.34H90.569L78.48,235.072h69.695Z" transform="translate(-78.48 -199.287)" fill="#b4ebf0"/>
          </g>
          <path id="Path_233" data-name="Path 233" d="M537.31,1027.764l27.847-19.574,27.851,19.574Z" transform="translate(-308.103 -587.788)" fill="#bf8f67"/>
          <g id="Group_84" data-name="Group 84" transform="translate(235.507 73.061)">
            <path id="Path_234" data-name="Path 234" d="M530.495,274.627a46.65,46.65,0,0,1-5.763,1.022c-1.366,0-4.776-4.313-4.776-4.313l-20.133-3.194-23.2-5.8v19.107s3.414,3.754,3.753,6.485a29.032,29.032,0,0,1,0,5.8v11.943l27.3,1.022,5.458-3.414.339,3.071s4.776,2.388,7.763,2.388,34.891,3.414,34.891,3.414V281.447Z" transform="translate(-476.616 -243.582)" fill="#f9cf00"/>
            <path id="Path_235" data-name="Path 235" d="M476.61,238.523s17.062-7.168,20.472-8.529S508,225.218,508,225.218l13.221-5.458,12.027,9.384s-1.7,2.9,0,4.608,4.776,1.366,4.776,1.366l2.049,1.022,11.608,15.005,4.436,6.485-25.626-6.824a46.651,46.651,0,0,1-5.762,1.022c-1.366,0-4.776-4.313-4.776-4.313l-20.133-3.194Z" transform="translate(-476.61 -219.76)" fill="#ffda03"/>
            <path id="Path_236" data-name="Path 236" d="M497.723,295.139s-1.022,5.643,0,7.348,7.168,1.877,7.168,1.877,3.753.511,5.119-2.216-2.732-7-2.732-7S500.111,293.592,497.723,295.139Z" transform="translate(-488.168 -261.547)" fill="#f7bc00"/>
            <path id="Path_237" data-name="Path 237" d="M573.054,319.866s-2.049,2.048,0,3.414a6.9,6.9,0,0,0,3.414,1.366s3.753-2.388,2.049-4.775S573.054,319.866,573.054,319.866Z" transform="translate(-530.056 -275.173)" fill="#f7bc00"/>
            <path id="Path_238" data-name="Path 238" d="M523.72,232.912a30.858,30.858,0,0,1,4.842,2.842c3.754,2.731,11.261,0,11.261,0s3.833-3.075,2.9-6.824c-.255-1.022-.586-2.357-.934-3.749l-7.423,3.066S527.24,231.48,523.72,232.912Z" transform="translate(-502.966 -222.792)" fill="#f9cf00"/>
            <path id="Path_239" data-name="Path 239" d="M624.839,351.822c-2.049-2.388-7.846-2.732-7.846-2.732s-3.753,2.049-4.436,4.093a17.778,17.778,0,0,0-.194,5.463c5.894.595,12.106,1.247,15.93,1.648C627.522,357.588,626.178,353.385,624.839,351.822Z" transform="translate(-552.496 -292.114)" fill="#f7bc00"/>
          </g>
          <g id="Group_100" data-name="Group 100" transform="translate(99.577 105.981) rotate(-43)">
            <g id="Group_100-2" data-name="Group 100" transform="translate(0 0)">
              <path id="Path_248" data-name="Path 248" d="M110.277,14.831l-13-12.671C83.109-2.865,78.572.853,65.47,13.555,47.759,30.731-7.1,93.712.767,113.671,18.385,117.331,124.256,42.835,110.277,14.831Z" transform="translate(0 27.151)" fill="#ff8024" fill-rule="evenodd"/>
              <path id="Path_249" data-name="Path 249" d="M0,29.311,13,41.982C23.976,32.52,32.057,30.209,43.741,17.3L31.658,19.381,35.922,7.173,22.159,11.6c5.4-9.9,4.658-4.516,2.3-11.6C13.884,5.6,7.5,20.222,0,29.311Z" transform="translate(97.281 0)" fill="#1a7d0e" fill-rule="evenodd"/>
              <path id="Path_250" data-name="Path 250" d="M1.92.32l27.9,27.269a1.133,1.133,0,0,1,.021,1.6h0a1.135,1.135,0,0,1-1.6.016L.339,1.932A1.14,1.14,0,0,1,.318.33h0A1.149,1.149,0,0,1,1.92.32Z" transform="translate(67.336 42.235)" fill="#e3670d" fill-rule="evenodd"/>
              <path id="Path_251" data-name="Path 251" d="M1.92.322,28.364,26.167a1.133,1.133,0,0,1,.021,1.6h0a1.135,1.135,0,0,1-1.6.016L.339,1.934A1.14,1.14,0,0,1,.318.332h0A1.144,1.144,0,0,1,1.92.322Z" transform="translate(50.638 60.9)" fill="#e3670d" fill-rule="evenodd"/>
              <path id="Path_252" data-name="Path 252" d="M1.915.321,22.861,20.789a1.133,1.133,0,0,1,.021,1.6h0a1.139,1.139,0,0,1-1.6.021L.339,1.938A1.14,1.14,0,0,1,.318.337h0A1.133,1.133,0,0,1,1.915.321Z" transform="translate(35.226 81.211)" fill="#e3670d" fill-rule="evenodd"/>
              <path id="Path_253" data-name="Path 253" d="M1.925.323l27.9,27.269a1.135,1.135,0,0,1,.016,1.6h0a1.135,1.135,0,0,1-1.6.016L.339,1.94A1.135,1.135,0,0,1,.323.339h0A1.135,1.135,0,0,1,1.925.323Z" transform="translate(58.242 51.536)" fill="#e3670d" fill-rule="evenodd"/>
              <path id="Path_254" data-name="Path 254" d="M1.92.32,28.364,26.165a1.133,1.133,0,0,1,.021,1.6h0a1.135,1.135,0,0,1-1.6.016L.339,1.932A1.14,1.14,0,0,1,.318.33h0A1.149,1.149,0,0,1,1.92.32Z" transform="translate(41.549 70.201)" fill="#e3670d" fill-rule="evenodd"/>
              <path id="Path_255" data-name="Path 255" d="M1.925.322,22.872,20.791a1.128,1.128,0,0,1,.016,1.6h0a1.14,1.14,0,0,1-1.6.021L.339,1.94A1.133,1.133,0,0,1,.318.343h0A1.136,1.136,0,0,1,1.925.322Z" transform="translate(26.126 90.515)" fill="#e3670d" fill-rule="evenodd"/>
            </g>
          </g>
          <g id="Group_101" data-name="Group 101" transform="translate(119.313 117.791) rotate(-43)">
            <g id="Group_100-3" data-name="Group 100" transform="translate(0 0)">
              <path id="Path_248-2" data-name="Path 248" d="M110.277,14.831l-13-12.671C83.109-2.865,78.572.853,65.47,13.555,47.759,30.731-7.1,93.712.767,113.671,18.385,117.331,124.256,42.835,110.277,14.831Z" transform="translate(0 27.151)" fill="#ff9548" fill-rule="evenodd"/>
              <path id="Path_249-2" data-name="Path 249" d="M0,29.311,13,41.982C23.976,32.52,32.057,30.209,43.741,17.3L31.658,19.381,35.922,7.173,22.159,11.6c5.4-9.9,4.658-4.516,2.3-11.6C13.884,5.6,7.5,20.222,0,29.311Z" transform="translate(97.281 0)" fill="#39902e" fill-rule="evenodd"/>
              <path id="Path_250-2" data-name="Path 250" d="M1.92.32l27.9,27.269a1.133,1.133,0,0,1,.021,1.6h0a1.135,1.135,0,0,1-1.6.016L.339,1.932A1.14,1.14,0,0,1,.318.33h0A1.149,1.149,0,0,1,1.92.32Z" transform="translate(67.336 42.235)" fill="#e3670d" fill-rule="evenodd"/>
              <path id="Path_251-2" data-name="Path 251" d="M1.92.322,28.364,26.167a1.133,1.133,0,0,1,.021,1.6h0a1.135,1.135,0,0,1-1.6.016L.339,1.934A1.14,1.14,0,0,1,.318.332h0A1.144,1.144,0,0,1,1.92.322Z" transform="translate(50.638 60.9)" fill="#e3670d" fill-rule="evenodd"/>
              <path id="Path_252-2" data-name="Path 252" d="M1.915.321,22.861,20.789a1.133,1.133,0,0,1,.021,1.6h0a1.139,1.139,0,0,1-1.6.021L.339,1.938A1.14,1.14,0,0,1,.318.337h0A1.133,1.133,0,0,1,1.915.321Z" transform="translate(35.226 81.211)" fill="#e3670d" fill-rule="evenodd"/>
              <path id="Path_253-2" data-name="Path 253" d="M1.925.323l27.9,27.269a1.135,1.135,0,0,1,.016,1.6h0a1.135,1.135,0,0,1-1.6.016L.339,1.94A1.135,1.135,0,0,1,.323.339h0A1.135,1.135,0,0,1,1.925.323Z" transform="translate(58.242 51.536)" fill="#e3670d" fill-rule="evenodd"/>
              <path id="Path_254-2" data-name="Path 254" d="M1.92.32,28.364,26.165a1.133,1.133,0,0,1,.021,1.6h0a1.135,1.135,0,0,1-1.6.016L.339,1.932A1.14,1.14,0,0,1,.318.33h0A1.149,1.149,0,0,1,1.92.32Z" transform="translate(41.549 70.201)" fill="#e3670d" fill-rule="evenodd"/>
              <path id="Path_255-2" data-name="Path 255" d="M1.925.322,22.872,20.791a1.128,1.128,0,0,1,.016,1.6h0a1.14,1.14,0,0,1-1.6.021L.339,1.94A1.133,1.133,0,0,1,.318.343h0A1.136,1.136,0,0,1,1.925.322Z" transform="translate(26.126 90.515)" fill="#e3670d" fill-rule="evenodd"/>
            </g>
          </g>
          <g id="Group_104" data-name="Group 104" transform="translate(81.101 74.195)">
            <g id="Group_102" data-name="Group 102" transform="translate(0)">
              <path id="Path_256" data-name="Path 256" d="M36.559,32.819c-.678.909-.549,1,.027,2.31,1.287,2.927,4.271.863,6.293,3.578a40.925,40.925,0,0,1-4.044,3.044c-2.325-1-3.642-2.223-6.808-2.287-3.858-.08-4.547,1.31-7.16,1.942-.723-.53-1.185-.969-2.1-1.624-.947-.682-1.337-.651-2-1.435,2.5-1.624,4.487-1.234,6.747-2.238l.409-3.711c-9.719-.727-10.871,4.252-13.017,4.854-1.019.288-2.128.223-3.184.576C3.2,40.683-.411,52.618.619,63.261,1.611,73.537,9.487,93.506,19.3,96.782c3.093,1.034,3.377.027,5.929-.458a8.176,8.176,0,0,0,6.8,3.548c3.15-.155,4.835-2.23,6.463-3.79,1.878.231,4.631,3.184,10.416-1.624,11.817-9.825,21.866-40.616,8.481-53.52-3.964-3.824-5.873-2.775-7.311-3.96C47.138,34.553,44.541,30.775,36.559,32.819Z" transform="translate(-0.278 -20.029)" fill="#e24b35" fill-rule="evenodd"/>
              <path id="Path_257" data-name="Path 257" d="M92.15,34.324c.151,1.658.144,1.287,1.829,1.613,2.336.454,5.767,1.34,6.543,3.733a11.073,11.073,0,0,0-4.3,3.04c12.65,20.086,8.1,39.291-.114,54.152,11.65,7.008,23.5-20.314,24.778-33.111.909-9.083-2.151-18.7-7.107-22.737a13.577,13.577,0,0,0-4.956-2.541C104.319,37.091,104.013,30.693,92.15,34.324Z" transform="translate(-57.259 -20.644)" fill="#d23127" fill-rule="evenodd"/>
              <path id="Path_258" data-name="Path 258" d="M28.9,34.474c-.151,1.658-.144,1.287-1.829,1.613-2.336.454-5.767,1.34-6.543,3.733a11.073,11.073,0,0,1,4.3,3.04c-12.65,20.086-8.1,39.291.114,54.152C13.289,104.021,1.442,76.7.159,63.9-.75,54.818,2.309,45.2,7.265,41.165a13.576,13.576,0,0,1,4.956-2.541C16.727,37.246,17.034,30.843,28.9,34.474Z" transform="translate(0.001 -20.738)" fill="#d23127" fill-rule="evenodd"/>
              <path id="Path_259" data-name="Path 259" d="M71.05,102.7c0,15.107,9.852,15.225,9.852,0C80.9,86.585,71.05,86.755,71.05,102.7Z" transform="translate(-44.148 -56.343)" fill="#ed7065" fill-rule="evenodd"/>
              <path id="Path_260" data-name="Path 260" d="M61.276,12.362l-.409,3.711c-2.264,1-4.248.613-6.747,2.238.666.784,1.053.753,2,1.435.909.655,1.374,1.094,2.1,1.624,2.613-.632,3.3-2.022,7.16-1.942,3.165.064,4.483,1.284,6.808,2.287a40.34,40.34,0,0,0,4.044-3.044c-2.022-2.711-5.006-.651-6.293-3.578-.576-1.306-.7-1.4-.027-2.31-.549.136-1.034.92-1.079-2.624C68.762,4.612,70.984,2.688,71.469,0,65.134.1,63.378,6.967,61.276,12.362Z" transform="translate(-33.628)" fill="#6ea830" fill-rule="evenodd"/>
            </g>
            <g id="Group_103" data-name="Group 103" transform="translate(34.259 12.332)">
              <path id="Path_261" data-name="Path 261" d="M115.992,60.349c-.273,1.1-.117,1.136.924,2.117,2.325,2.192,4.271-.867,7.19.841a40.444,40.444,0,0,1-2.541,4.381c-2.533-.019-4.222-.629-7.16.545-3.586,1.431-3.677,2.98-5.835,4.581-.871-.2-1.469-.428-2.563-.678a8.264,8.264,0,0,1-2.4-.541c1.67-2.472,3.65-2.885,5.342-4.691l-1.072-3.574c-9.231,3.124-8.349,8.16-10.091,9.549-.825.659-1.874,1.034-2.707,1.772C88.344,80.6,89.673,93,94.77,102.4c4.922,9.076,19.958,24.4,30.275,23.581,3.252-.257,3.12-1.291,5.282-2.734a8.162,8.162,0,0,0,7.641.617c2.84-1.374,3.582-3.942,4.475-6.013,1.821-.519,5.505,1.128,8.958-5.558,7.05-13.657,4.3-45.928-13.059-52.592-5.142-1.973-6.49-.265-8.277-.8C126.4,57.823,122.542,55.351,115.992,60.349Z" transform="translate(-90.48 -47.956)" fill="#e24b35" fill-rule="evenodd"/>
              <path id="Path_262" data-name="Path 262" d="M155.39,61.923c.788,1.469.632,1.128,2.313.772,2.329-.492,5.831-1.015,7.478.886a11.019,11.019,0,0,0-2.772,4.475c19.481,13.563,22.778,33.02,21.01,49.911,13.46,1.908,13.718-27.867,9.9-40.154-2.7-8.72-9.273-16.383-15.41-18.167a13.611,13.611,0,0,0-5.555-.409C167.677,59.727,164.9,53.953,155.39,61.923Z" transform="translate(-130.813 -48.167)" fill="#d23127" fill-rule="evenodd"/>
              <path id="Path_263" data-name="Path 263" d="M109.615,75.21c.507,1.586.371,1.242-1.053,2.2-1.973,1.329-4.786,3.483-4.566,5.99a11.022,11.022,0,0,1,5.142,1.125c-3.817,23.43,7.864,39.336,21.219,49.82-8,11-29.556-9.542-35.728-20.829-4.381-8.008-5.312-18.061-2.321-23.71a13.6,13.6,0,0,1,3.571-4.271C99.491,82.506,97.279,76.494,109.615,75.21Z" transform="translate(-90.536 -59.065)" fill="#d23127" fill-rule="evenodd"/>
              <path id="Path_264" data-name="Path 264" d="M166.174,134.948c5.892,13.911,15.009,10.178,9.072-3.843C168.964,116.271,159.957,120.273,166.174,134.948Z" transform="translate(-136.213 -87.994)" fill="#ed7065" fill-rule="evenodd"/>
              <path id="Path_265" data-name="Path 265" d="M129.4,47.939l1.072,3.574c-1.693,1.806-3.673,2.223-5.342,4.691a8.144,8.144,0,0,0,2.4.541c1.094.25,1.692.473,2.563.678,2.158-1.6,2.253-3.15,5.835-4.581,2.942-1.174,4.631-.568,7.16-.545a41.087,41.087,0,0,0,2.541-4.381c-2.919-1.708-4.865,1.355-7.19-.841-1.037-.981-1.2-1.015-.924-2.117-.451.337-.594,1.249-2.018-2-2.23-5.085-.935-7.724-1.537-10.39C128.174,35.141,129.234,42.146,129.4,47.939Z" transform="translate(-112.01 -32.57)" fill="#6ea830" fill-rule="evenodd"/>
            </g>
          </g>
          <rect id="Rectangle_14" data-name="Rectangle 14" width="294.091" height="445.125" transform="translate(0 119.081)" fill="#d3a97e"/>
        </g>
      </g>
      <path id="Path_240" data-name="Path 240" d="M997,257.918v-6.579l5.432,6.579,6.415-6.579,6.415,6.579,6.415-6.579,6.415,6.579,6.415-6.579,6.415,6.579,6.416-6.579,6.415,6.579,6.415-6.579,6.415,6.579,6.415-6.579,6.416,6.579,6.415-6.579,6.416,6.579,6.415-6.579,6.415,6.579,6.415-6.579,6.415,6.579,6.415-6.579,6.416,6.579,6.415-6.579,6.415,6.579,6.415-6.579,6.415,6.579,6.415-6.579,6.415,6.579,6.416-6.579,6.415,6.579,6.415-6.579,6.415,6.579,6.415-6.579,6.415,6.579,6.415-6.579,6.415,6.579,6.415-6.579,6.415,6.579,6.415-6.579,6.415,6.579,6.415-6.579,6.415,6.579,6.415-6.579,6.416,6.579,6.415-6.579,6.415,6.579,6.415-6.579V270.6H997Z" transform="translate(-997 -138.77)" fill="#d3a97e"/>
    </g>
    <g id="Group_94" data-name="Group 94" transform="translate(591.042 244.398)">
      <g id="Group_93" data-name="Group 93">
        <rect id="Rectangle_22" data-name="Rectangle 22" width="24.958" height="445.289" fill="#d5aa78"/>
        <rect id="Rectangle_23" data-name="Rectangle 23" width="13.925" height="445.289" fill="#c69b70"/>
      </g>
      <path id="Path_245" data-name="Path 245" d="M430.08,1499.064l12.352-14.444,12.352,14.444Z" transform="translate(-429.826 -1053.776)" fill="#bf8f67"/>
    </g>
    <path id="Path_247" data-name="Path 247" d="M2463.819,242.677l2.373-5.651,2.593,5.651,3.324-5.651,2.6,5.651V245.3h-10.886Z" transform="translate(-1858.706 1.721)" fill="#d5ab78"/>
    <path id="Path_246" data-name="Path 246" d="M2450.1,236.53l2.423,6.49,2.458-6.49,2.014,6.49,2.393-6.49,1.491,6.49,2.148-6.49.873,6.49-3.021,5.748-10.779-1.783Z" transform="translate(-1858.994 1.524)" fill="#c69c70"/>
  </g>
</svg>
