<svg xmlns="http://www.w3.org/2000/svg" xmlns:xlink="http://www.w3.org/1999/xlink" width="23" height="23" viewBox="0 0 23 23">
  <defs>
    <clipPath id="clip-path">
      <circle id="Ellipse_8" data-name="Ellipse 8" cx="10.5" cy="10.5" r="10.5" transform="translate(0.088 0.088)" fill="none" stroke="#fff" stroke-width="1"/>
    </clipPath>
    <clipPath id="clip-path-2">
      <path id="Path_22" data-name="Path 22" d="M0-187.5H12.466v16.592H0Z" transform="translate(0 187.5)" fill="#fff"/>
    </clipPath>
  </defs>
  <g id="Group_99" data-name="Group 99" transform="translate(-1101 -155.277)">
    <g id="Mask_Group_1" data-name="Mask Group 1" transform="translate(1101.912 156.19)" clip-path="url(#clip-path)">
      <g id="Group_98" data-name="Group 98" transform="translate(4.394 3.789)">
        <g id="Group_3" data-name="Group 3" clip-path="url(#clip-path-2)">
          <g id="Group_1" data-name="Group 1" transform="translate(2.951 0)">
            <path id="Path_20" data-name="Path 20" d="M-35.269-70.282a3.353,3.353,0,0,0,3.282-3.412,3.353,3.353,0,0,0-3.282-3.411,3.353,3.353,0,0,0-3.282,3.411,3.353,3.353,0,0,0,3.282,3.412" transform="translate(38.551 77.105)" fill="#fff"/>
          </g>
          <g id="Group_2" data-name="Group 2" transform="translate(0 7.71)">
            <path id="Path_21" data-name="Path 21" d="M-86.863,0h-3.7a4.287,4.287,0,0,0-3.1,1.334,4.632,4.632,0,0,0-1.284,3.221V7.72a16.385,16.385,0,0,0,6.233,1.161A16.384,16.384,0,0,0-82.48,7.72V4.556a4.632,4.632,0,0,0-1.284-3.221A4.288,4.288,0,0,0-86.863,0" transform="translate(94.946 0)" fill="#fff"/>
          </g>
        </g>
      </g>
    </g>
    <g id="Ellipse_9" data-name="Ellipse 9" transform="translate(1101 155.277)" fill="none" stroke="#fff" stroke-width="2">
      <circle cx="11.5" cy="11.5" r="11.5" stroke="none"/>
      <circle cx="11.5" cy="11.5" r="10.5" fill="none"/>
    </g>
  </g>
</svg>
