<svg id="lock-24px" xmlns="http://www.w3.org/2000/svg" width="15.006" height="15.006" viewBox="0 0 15.006 15.006">
  <path id="Path_16" data-name="Path 16" d="M0,0H15.006V15.006H0Z" fill="none"/>
  <path id="Path_17" data-name="Path 17" d="M12.753,5.377h-.625V4.126a3.126,3.126,0,1,0-6.252,0v1.25H5.25A1.254,1.254,0,0,0,4,6.627v6.252a1.254,1.254,0,0,0,1.25,1.25h7.5A1.254,1.254,0,0,0,14,12.879V6.627A1.254,1.254,0,0,0,12.753,5.377ZM9,11a1.25,1.25,0,1,1,1.25-1.25A1.254,1.254,0,0,1,9,11ZM10.94,5.377H7.064V4.126a1.938,1.938,0,1,1,3.876,0Z" transform="translate(-1.499 -0.375)" fill="#fff"/>
</svg>
